<svg width="319" height="265" viewBox="0 0 319 265" xmlns="http://www.w3.org/2000/svg" xmlns:xlink="http://www.w3.org/1999/xlink"><svg id="clear-view-escapes" data-name="Layer 1" width="144.4" height="61.53" viewBox="-1 -1 144.4 61.53" y="92.5" xmlns="http://www.w3.org/2000/svg"><defs><style>.acls-1{fill:#fff}</style></defs><path class="acls-1" d="M19.5 27.52v4.75H5.93v5.51h12.45v4.39H5.93v6.3h13.85v4.75H.28v-25.7H19.5zm7.86 21.07a3 3 0 0 0 .88 1 3.78 3.78 0 0 0 1.24.56 5.84 5.84 0 0 0 1.46.18 5.46 5.46 0 0 0 1.13-.13 3.86 3.86 0 0 0 1.08-.4 2.47 2.47 0 0 0 .85-.75 1.89 1.89 0 0 0 .32-1.13 1.91 1.91 0 0 0-1.53-1.73 30.59 30.59 0 0 0-4.3-1.19q-1.12-.25-2.18-.59a7.38 7.38 0 0 1-1.89-.9 4.35 4.35 0 0 1-1.33-1.4 4 4 0 0 1-.5-2.07 5.6 5.6 0 0 1 .7-3 5.16 5.16 0 0 1 1.85-1.82 8.13 8.13 0 0 1 2.59-.94 15.92 15.92 0 0 1 3-.27 14.79 14.79 0 0 1 2.93.29 7.77 7.77 0 0 1 2.54 1 5.83 5.83 0 0 1 1.8 1.88 6.11 6.11 0 0 1 .89 2.82H34a2.24 2.24 0 0 0-1.12-2 5.1 5.1 0 0 0-2.37-.52 8.77 8.77 0 0 0-.94.05 3.15 3.15 0 0 0-.92.23 1.91 1.91 0 0 0-.7.52 1.38 1.38 0 0 0-.29.92 1.4 1.4 0 0 0 .5 1.12 3.88 3.88 0 0 0 1.31.7 16.38 16.38 0 0 0 1.85.49l2.18.49a21.57 21.57 0 0 1 2.18.61 7.2 7.2 0 0 1 1.89 1 4.63 4.63 0 0 1 1.33 1.48 4.34 4.34 0 0 1 .5 2.18 5.65 5.65 0 0 1-2.66 5.07A7.9 7.9 0 0 1 34 53.37a15.9 15.9 0 0 1-3.11.31 15.36 15.36 0 0 1-3.17-.32A8.35 8.35 0 0 1 25 52.27a6.17 6.17 0 0 1-2-2 6.25 6.25 0 0 1-.85-3.11H27a2.8 2.8 0 0 0 .36 1.43zM51.27 38a3.59 3.59 0 0 0-2.05.56A4.45 4.45 0 0 0 47.87 40a6.23 6.23 0 0 0-.74 1.94 10.54 10.54 0 0 0-.21 2.06 10.11 10.11 0 0 0 .21 2 6.32 6.32 0 0 0 .7 1.89 4 4 0 0 0 1.31 1.39 3.61 3.61 0 0 0 2 .54 3.75 3.75 0 0 0 2.83-1 4.86 4.86 0 0 0 1.24-2.75h4.93a8.43 8.43 0 0 1-2.88 5.65 9.29 9.29 0 0 1-6.08 1.94 10.16 10.16 0 0 1-3.83-.7 8.49 8.49 0 0 1-3-2 8.92 8.92 0 0 1-1.91-3 10.42 10.42 0 0 1-.68-3.83 12.4 12.4 0 0 1 .63-4 9 9 0 0 1 1.9-3.13 8.49 8.49 0 0 1 3-2.1 10.15 10.15 0 0 1 4-.76 11.63 11.63 0 0 1 3.19.43 8.49 8.49 0 0 1 2.73 1.31 6.79 6.79 0 0 1 2.83 5.31h-5A3.43 3.43 0 0 0 51.27 38zm11.55 2.33a5.93 5.93 0 0 1 .9-3 6.13 6.13 0 0 1 2-1.91 8.83 8.83 0 0 1 2.75-1 15.71 15.71 0 0 1 3.08-.31 20.85 20.85 0 0 1 2.84.2 8.72 8.72 0 0 1 2.63.77A5.18 5.18 0 0 1 79 36.67a4.47 4.47 0 0 1 .76 2.72v9.68a19.49 19.49 0 0 0 .14 2.41 4.34 4.34 0 0 0 .5 1.73h-5.19a6.77 6.77 0 0 1-.21-.88 7.44 7.44 0 0 1-.13-.92A6.64 6.64 0 0 1 72 53.17a11.55 11.55 0 0 1-3.38.5 9.1 9.1 0 0 1-2.48-.32 5.68 5.68 0 0 1-2-1 4.69 4.69 0 0 1-1.35-1.73 5.84 5.84 0 0 1-.49-2.48 5.42 5.42 0 0 1 .56-2.61 4.66 4.66 0 0 1 1.44-1.64 6.44 6.44 0 0 1 2-.92 21.75 21.75 0 0 1 2.29-.49q1.15-.18 2.27-.29a13.74 13.74 0 0 0 2-.32 3.43 3.43 0 0 0 1.37-.63 1.38 1.38 0 0 0 .4-1.24 2.72 2.72 0 0 0-.27-1.31 2 2 0 0 0-.72-.69 2.86 2.86 0 0 0-1-.36 8.61 8.61 0 0 0-1.28-.09 3.88 3.88 0 0 0-2.37.65 2.89 2.89 0 0 0-1 2.16h-5.17zm11.8 3.78a2.28 2.28 0 0 1-.81.45 8.28 8.28 0 0 1-1 .27c-.41.07-.81.17-1.2.17s-.82.11-1.22.18a9.24 9.24 0 0 0-1.13.29 3.34 3.34 0 0 0-1 .49 2.3 2.3 0 0 0-.67.77 2.49 2.49 0 0 0-.25 1.19 2.4 2.4 0 0 0 .25 1.15 1.93 1.93 0 0 0 .68.74 2.9 2.9 0 0 0 1 .38 6.48 6.48 0 0 0 1.19.11 4.51 4.51 0 0 0 2.34-.5 3.36 3.36 0 0 0 1.22-1.21 3.87 3.87 0 0 0 .49-1.42 10.06 10.06 0 0 0 .12-1.17v-1.89zm13.94-9.51V37h.07A5.62 5.62 0 0 1 91 34.78a7.29 7.29 0 0 1 3.17-.68 8.07 8.07 0 0 1 3.78.83 7.82 7.82 0 0 1 2.63 2.2 9.31 9.31 0 0 1 1.55 3.19 14.19 14.19 0 0 1 .5 3.8 12.82 12.82 0 0 1-.5 3.6 9.18 9.18 0 0 1-1.53 3.06 7.58 7.58 0 0 1-2.6 2.11 7.69 7.69 0 0 1-3.58.79 7.23 7.23 0 0 1-3.18-.7 6 6 0 0 1-2.39-2.07h-.04v8.82H83.7V34.6h4.86zm6.64 14.76A4.09 4.09 0 0 0 96.56 48a5.43 5.43 0 0 0 .74-1.89 11.19 11.19 0 0 0 .22-2.2 10.32 10.32 0 0 0-.23-2.2 5.86 5.86 0 0 0-.77-1.92 4.33 4.33 0 0 0-1.39-1.37 3.87 3.87 0 0 0-2.08-.42 3.94 3.94 0 0 0-2.11.52 4.22 4.22 0 0 0-1.37 1.35 5.6 5.6 0 0 0-.74 1.91 11.3 11.3 0 0 0-.2 2.22 10.31 10.31 0 0 0 .23 2.2 5.69 5.69 0 0 0 .76 1.8 4.36 4.36 0 0 0 5.58 1.36zm15.95-.61a5.24 5.24 0 0 0 6 .34 3.21 3.21 0 0 0 1.37-1.64H123a8.54 8.54 0 0 1-3.31 4.79 9.75 9.75 0 0 1-5.4 1.44 10.6 10.6 0 0 1-4-.7 8.22 8.22 0 0 1-3-2 9 9 0 0 1-1.89-3.09 11.34 11.34 0 0 1-.67-4 10.84 10.84 0 0 1 .68-3.89 9 9 0 0 1 4.95-5.18 9.63 9.63 0 0 1 3.87-.76 8.84 8.84 0 0 1 4.14.92 8.26 8.26 0 0 1 2.9 2.46A10.14 10.14 0 0 1 123 41a13.14 13.14 0 0 1 .36 4.14H109.9a5.16 5.16 0 0 0 1.25 3.61zm5.78-9.75a3.59 3.59 0 0 0-2.79-1 4.45 4.45 0 0 0-2 .41 3.89 3.89 0 0 0-1.3 1 3.77 3.77 0 0 0-.68 1.3 5.83 5.83 0 0 0-.23 1.22h8.31a5.91 5.91 0 0 0-1.31-2.93zm13.71 9.59a3 3 0 0 0 .88 1 3.78 3.78 0 0 0 1.24.56 5.83 5.83 0 0 0 1.46.18 5.46 5.46 0 0 0 1.13-.13 3.86 3.86 0 0 0 1.08-.4 2.47 2.47 0 0 0 .81-.72 1.89 1.89 0 0 0 .32-1.13 1.91 1.91 0 0 0-1.56-1.76 30.55 30.55 0 0 0-4.22-1.19q-1.11-.25-2.18-.59a7.39 7.39 0 0 1-1.89-.9 4.36 4.36 0 0 1-1.33-1.4 4 4 0 0 1-.5-2.07 5.6 5.6 0 0 1 .7-3 5.18 5.18 0 0 1 1.85-1.82 8.13 8.13 0 0 1 2.59-.94 15.91 15.91 0 0 1 3-.27 14.79 14.79 0 0 1 2.93.29 7.77 7.77 0 0 1 2.54 1 5.84 5.84 0 0 1 1.85 1.82 6.11 6.11 0 0 1 .88 2.86h-4.86a2.24 2.24 0 0 0-1.12-2 5.1 5.1 0 0 0-2.37-.52 8.77 8.77 0 0 0-.94.05 3.15 3.15 0 0 0-.92.23 1.9 1.9 0 0 0-.7.52 1.38 1.38 0 0 0-.29.92 1.4 1.4 0 0 0 .5 1.12 3.87 3.87 0 0 0 1.31.7 16.33 16.33 0 0 0 1.85.49l2.1.51a21.57 21.57 0 0 1 2.18.61 7.18 7.18 0 0 1 1.89 1 4.63 4.63 0 0 1 1.33 1.48 4.33 4.33 0 0 1 .5 2.18 5.65 5.65 0 0 1-2.68 5.04 7.89 7.89 0 0 1-2.72 1.06 15.9 15.9 0 0 1-3.11.31 15.35 15.35 0 0 1-3.17-.32 8.35 8.35 0 0 1-2.75-1.08 6.18 6.18 0 0 1-2-2 6.25 6.25 0 0 1-.85-3.11h4.86a2.8 2.8 0 0 0 .38 1.42zm-107-42.3a6.36 6.36 0 0 0-.55-1.43 4 4 0 0 0-.9-1.12A4 4 0 0 0 20.9 3a5.11 5.11 0 0 0-1.71-.26 5 5 0 0 0-2.46.58A4.84 4.84 0 0 0 15 4.85a6.93 6.93 0 0 0-1 2.19 10.16 10.16 0 0 0 0 5 6.92 6.92 0 0 0 1 2.19 4.83 4.83 0 0 0 1.69 1.54 5 5 0 0 0 2.46.57A4.44 4.44 0 0 0 21 16a4.12 4.12 0 0 0 1.38-1 4.71 4.71 0 0 0 .9-1.49 7.13 7.13 0 0 0 .43-1.83h3.05a8.48 8.48 0 0 1-.69 2.93 7.17 7.17 0 0 1-1.59 2.29 7 7 0 0 1-2.35 1.49 8.14 8.14 0 0 1-3 .53 8.43 8.43 0 0 1-3.59-.74 7.88 7.88 0 0 1-2.69-2 9 9 0 0 1-1.69-3 11 11 0 0 1-.59-3.63 11 11 0 0 1 .59-3.6 9 9 0 0 1 1.69-3 8 8 0 0 1 2.69-2 8.29 8.29 0 0 1 3.65-.76A9.46 9.46 0 0 1 22 .6a7.31 7.31 0 0 1 2.34 1.2A6.23 6.23 0 0 1 26 3.72a6.66 6.66 0 0 1 .78 2.58h-3.14zM29.31.62h2.85v17.85h-2.85V.62zm8.18 12.12a5 5 0 0 0 .21 1.45 3.57 3.57 0 0 0 .64 1.23 3.06 3.06 0 0 0 1.08.84 3.54 3.54 0 0 0 1.55.31A3.42 3.42 0 0 0 43 16a3.17 3.17 0 0 0 1.14-1.61h2.7a5.36 5.36 0 0 1-2.1 3.26 5.71 5.71 0 0 1-1.74.85 7 7 0 0 1-2 .29 6.85 6.85 0 0 1-2.7-.5 5.58 5.58 0 0 1-2-1.4 5.93 5.93 0 0 1-1.3-2.12 8.74 8.74 0 0 1-.36-2.77 7.79 7.79 0 0 1 .44-2.61 6.68 6.68 0 0 1 1.25-2.18 5.86 5.86 0 0 1 4.56-2 5.8 5.8 0 0 1 2.74.64 6 6 0 0 1 2 1.69 6.84 6.84 0 0 1 1.17 2.39 7.42 7.42 0 0 1 .2 2.81h-9.5zm6.65-1.88a4.61 4.61 0 0 0-.29-1.3 3.47 3.47 0 0 0-.65-1.09 3.23 3.23 0 0 0-1-.75 3 3 0 0 0-1.31-.29 3.42 3.42 0 0 0-1.36.26 3.11 3.11 0 0 0-1.05.73 3.59 3.59 0 0 0-.7 1.09 3.78 3.78 0 0 0-.29 1.35h6.65zM60 15.59a1.51 1.51 0 0 0 .14.75.58.58 0 0 0 .54.23H61a1.85 1.85 0 0 0 .4 0v2l-.4.04-.49.11-.5.08h-.43a2.75 2.75 0 0 1-1.45-.35 1.74 1.74 0 0 1-.75-1.23 5 5 0 0 1-2.09 1.2 8.22 8.22 0 0 1-2.39.38 5.86 5.86 0 0 1-1.68-.24 4.38 4.38 0 0 1-1.41-.7 3.35 3.35 0 0 1-1-1.18 3.62 3.62 0 0 1-.35-1.68 3.84 3.84 0 0 1 .44-2 3.24 3.24 0 0 1 1.15-1.18 5.21 5.21 0 0 1 1.6-.61q.89-.19 1.79-.29a14.67 14.67 0 0 1 1.48-.21 6.86 6.86 0 0 0 1.24-.21 1.9 1.9 0 0 0 .84-.37 1.27 1.27 0 0 0 .31-.94 1.46 1.46 0 0 0-.26-.9 1.77 1.77 0 0 0-.65-.54 2.82 2.82 0 0 0-.86-.25 6.94 6.94 0 0 0-.9-.06 3.58 3.58 0 0 0-2 .5 2 2 0 0 0-.87 1.55h-2.83a4.29 4.29 0 0 1 .6-2.08 4.14 4.14 0 0 1 1.34-1.33 5.48 5.48 0 0 1 1.84-.7 10.94 10.94 0 0 1 2.1-.2 8.85 8.85 0 0 1 1.88.2 5.34 5.34 0 0 1 1.65.62 3.61 3.61 0 0 1 1.19 1.16A3.19 3.19 0 0 1 60 8.94v6.65zM57.14 12a3.45 3.45 0 0 1-1.6.51q-1 .09-1.9.26a6.12 6.12 0 0 0-.87.21 2.63 2.63 0 0 0-.75.38 1.65 1.65 0 0 0-.51.63 2.14 2.14 0 0 0-.19.94 1.19 1.19 0 0 0 .27.8 2 2 0 0 0 .66.51 3.08 3.08 0 0 0 .85.26 5.3 5.3 0 0 0 .84.07 4.6 4.6 0 0 0 1-.12A3.4 3.4 0 0 0 56 16a2.73 2.73 0 0 0 .81-.76 1.93 1.93 0 0 0 .33-1.14V12zm5.92-6.46h2.68V8h.05a2.88 2.88 0 0 1 .49-1 4.73 4.73 0 0 1 .88-.91 4.4 4.4 0 0 1 1.14-.66 3.41 3.41 0 0 1 1.28-.25 6.21 6.21 0 0 1 .69 0h.39V8L70 7.93a5.06 5.06 0 0 0-.61 0 3.28 3.28 0 0 0-1.36.29 3.13 3.13 0 0 0-1.09.78 4.16 4.16 0 0 0-.75 1.39 6 6 0 0 0-.27 1.9v6.15h-2.86V5.54zM77.19.62h3.25l4.48 14.13H85L89.54.62h3.17l-6.1 17.85h-3.47zm17.23 0h2.85v2.7h-2.85V.62zm0 4.93h2.85v12.92h-2.85V5.54zm8.17 7.19a5 5 0 0 0 .21 1.45 3.57 3.57 0 0 0 .64 1.23 3.06 3.06 0 0 0 1.08.84 3.54 3.54 0 0 0 1.55.31 3.42 3.42 0 0 0 2-.54 3.18 3.18 0 0 0 1.14-1.61h2.7a5.36 5.36 0 0 1-2.1 3.26 5.71 5.71 0 0 1-1.74.85 7 7 0 0 1-2 .29 6.85 6.85 0 0 1-2.7-.5 5.58 5.58 0 0 1-2-1.4 5.93 5.93 0 0 1-1.22-2.15 8.73 8.73 0 0 1-.41-2.77 7.77 7.77 0 0 1 .44-2.61 6.69 6.69 0 0 1 1.25-2.18 5.86 5.86 0 0 1 4.56-2 5.79 5.79 0 0 1 2.74.64 6 6 0 0 1 2 1.69 6.85 6.85 0 0 1 1.16 2.41 7.42 7.42 0 0 1 .19 2.81h-9.5zm6.65-1.88a4.6 4.6 0 0 0-.29-1.3 3.48 3.48 0 0 0-.65-1.09 3.22 3.22 0 0 0-1-.75 3 3 0 0 0-1.3-.28 3.43 3.43 0 0 0-1.36.26 3.12 3.12 0 0 0-1 .73 3.6 3.6 0 0 0-.7 1.09 3.8 3.8 0 0 0-.29 1.35h6.65zm3.86-5.32h3l2.53 9.65 2.42-9.65H124l2.33 9.65L129 5.54h2.9l-4 12.93h-2.93l-2.4-9.6-2.37 9.6h-3z" transform="translate(-.28 -.19)"/></svg><svg id="comment" x="252.76" viewBox="-1 -1 66 66" width="66" height="66" xmlns="http://www.w3.org/2000/svg"><style>.bst0{fill:url(#bSVGID_1_)}</style><linearGradient id="bSVGID_1_" gradientUnits="userSpaceOnUse" x1="-24.076" y1="29.704" x2="136.738" y2="29.704"><stop offset=".028" stop-color="#fff"/><stop offset=".035" stop-color="#f5f7f8"/><stop offset=".066" stop-color="#ccd5dc"/><stop offset=".101" stop-color="#a6b6c3"/><stop offset=".139" stop-color="#869cad"/><stop offset=".181" stop-color="#6a869a"/><stop offset=".229" stop-color="#54748b"/><stop offset=".285" stop-color="#436680"/><stop offset=".354" stop-color="#385c78"/><stop offset=".45" stop-color="#315773"/><stop offset=".718" stop-color="#2f5572"/></linearGradient><path class="bst0" d="M.9-.1C.5-.1.1.2.1.6v46.6c0 .4.3.7.7.7h47.3l10.6 10.6c2 2 5.4.6 5.4-2.2V.6c0-.4-.2-.7-.6-.7H.9z"/></svg><svg id="facebook" x="227" y="91.76" viewBox="-1 -1 23.2 44" width="23.2" height="44" xmlns="http://www.w3.org/2000/svg"><style>.cst0{fill:#fff}</style><path class="cst0" d="M19 4.8V10h-3.1c-.7 0-1.6.2-2.1.7-.5.7-.7 1.4-.5 2.1v3.8H19l-.7 5.9h-4.9v15H7.2v-15H2.3v-5.9h4.9v-4.2c0-2.3.7-4.5 1.9-5.6 1.4-1.4 3.3-2.1 5.4-2.1 1.4-.1 2.8-.1 4.5.1z"/></svg><svg id="fire" y="154.03" viewBox="-1 -1 58 66" width="58" height="66" xmlns="http://www.w3.org/2000/svg"><style>.dst0{fill:url(#dSVGID_1_)}</style><radialGradient id="dSVGID_1_" cx="27.005" cy="41.56" r="39.607" gradientUnits="userSpaceOnUse"><stop offset=".153" stop-color="#fff"/><stop offset=".56" stop-color="#d4953d"/></radialGradient><path class="dst0" d="M16 0C24 16 0 24 0 40s16 24 16 24C8.2 48.2 32 40 32 24S16 0 16 0zm24 24c8 16-16 24-16 40h24c3.2 0 8-4 8-16 0-16-16-24-16-24z"/></svg><svg id="globe" x="58" y="154.03" viewBox="-1 -1 66 66" width="66" height="66" xmlns="http://www.w3.org/2000/svg"><style>.est0{fill:url(#eSVGID_1_)}</style><radialGradient id="eSVGID_1_" cx="32" cy="32" r="32" gradientUnits="userSpaceOnUse"><stop offset=".169" stop-color="#fff"/><stop offset="1" stop-color="#d4953d"/></radialGradient><path class="est0" d="M32 0C14.3 0 0 14.3 0 32s14.3 32 32 32 32-14.3 32-32S49.7 0 32 0zm0 8c2.6.1 5.1.6 7.5 1.5-1.7 1.6-3.6 3-3.3 4.5s5.5 1 5.5 4c0 2.2-3.4 2.8-1 5.3 2.8 2.8-5.1 7.8-5.3 11.5-.2 6.6 6.7 7.8 12.2 7.8 3.4 0 4.2 1.6 4 3.5-4.6 6.3-11.9 10.1-19.8 10-2.9 0-5.8-.6-8.5-1.8 1.8-3.5-2.2-10.5-6-12.7-1.8-1.8-5.8-1.1-8-2-.8-2.2-1.3-4.4-1.5-6.7.3-.5.8-.7 1.3-.7 1.5 0 3.6 3 4.7 2.7 1.4-.3-6-10.5-2.5-12.5 1.6-1 4.8 3.1 3.8-1.3-1-4.1 2.9-2.2 5.3-3.3 2.1-.9 3.6-3.3 1-4.7-.7-.4-1.2-.9-1.8-1.5C23.4 9.3 27.7 8.1 32 8zm18.5 8.7c1.4 1.8 2.6 3.7 3.5 5.8v.2c-.5.6-1.1 1.2-1.8 1.8-2.2 2.2-2.6-1.7-3.5-2.5-1-1-4.8.2-5.3-1-.5-1.5 4-3.4 7.1-4.3z"/></svg><svg id="instagram" y="220.03" viewBox="-1 -1 44 44" width="44" height="44" xmlns="http://www.w3.org/2000/svg"><style>.fst0{fill:#fff}</style><path class="fst0" d="M33.7 32.3V18.4h-2.8c.2.9.5 1.9.5 2.8 0 1.6-.5 3.5-1.4 4.9-.9 1.4-2.1 2.8-3.8 3.5-1.6.9-3.3 1.4-5.2 1.4-2.6 0-5.4-.9-7.3-2.8-1.9-1.9-3.1-4.5-3.1-7 0-.9 0-1.9.5-2.8h-3v13.9c0 .7.5 1.2 1.2 1.4h23c.2 0 .7-.2.9-.5.5-.2.5-.5.5-.9zM27.6 21c0-1.6-.7-3.3-1.9-4.5-1.2-1.2-3.1-1.9-4.7-1.9s-3.3.7-4.7 1.9c-1.2 1.2-1.9 2.8-1.9 4.5 0 1.6.7 3.3 1.9 4.5 1.2 1.2 2.8 1.9 4.7 1.9 1.6 0 3.5-.7 4.7-1.9 1.2-1.2 1.9-2.9 1.9-4.5zm6.1-7.7V9.7c0-.5-.2-.7-.5-.9-.2-.2-.7-.5-.9-.5h-3.8c-.5 0-.7.2-.9.5-.2.2-.5.7-.5.9v3.5c0 .7.7 1.4 1.4 1.4h3.8c.7.1 1.4-.6 1.4-1.3zm3.7-4.5v24.4c0 2.3-1.9 4.2-4.2 4.2H8.8c-1.2 0-2.1-.5-3.1-1.2-.7-.7-1.2-1.9-1.2-3.1V8.8c0-1.2.5-2.1 1.2-3.1.7-.7 1.9-1.1 3.1-1.1h24.4c1.2 0 2.1.5 3.1 1.2.7.9 1.1 1.8 1.1 3z"/></svg><svg id="mail" data-name="Layer 1" width="66" height="50" viewBox="-1 -1 66 50" x="161" y="91.76" xmlns="http://www.w3.org/2000/svg"><defs><style>.gcls-1{fill:#2f5572}</style></defs><path class="gcls-1" d="M0 0v8l32 16L64 8V0H0zm0 16v32h64V16L32 32z"/></svg><svg id="rain" x="252.76" y="66" viewBox="-1 -1 66 66" width="66" height="66" xmlns="http://www.w3.org/2000/svg"><style>.hst0{fill:url(#hSVGID_1_)}</style><radialGradient id="hSVGID_1_" cx="31.96" cy="32" r="32" gradientUnits="userSpaceOnUse"><stop offset="0" stop-color="#fff"/><stop offset="1" stop-color="#d4953d"/></radialGradient><path class="hst0" d="M36 0c-9.6 0-18 6.6-20 16-8.9 0-16 7.2-16 16 0 4 1.5 7.8 4.3 10.7C6.4 40.9 9.1 40 12 40c1.5 0 3.1.3 4.5 1 1.4-5.3 6.1-9 11.5-9 5.4.1 10.1 3.8 11.5 9 1.4-.6 2.9-1 4.5-1 4.9 0 9.2 3 11 7.5 5.2-1.4 8.9-6.1 9-11.5 0-5.2-3.4-10.3-8-12v-4C56 9 47 0 36 0zm-9.3 40c-1.7.6-2.8 2.2-2.7 4v16c0 2.2 1.8 4 4 4s4-1.8 4-4V44c0-2.2-1.7-4-3.9-4.1-.3 0-.5 0-.8.1h-.6zm-16 8c-1.7.6-2.8 2.2-2.7 4v8c0 2.2 1.8 4 4 4s4-1.8 4-4v-8c0-2.2-1.7-4-3.9-4.1-.3 0-.5 0-.8.1h-.6zm32 0c-1.7.6-2.8 2.2-2.7 4v8c0 2.2 1.8 4 4 4s4-1.8 4-4v-8c0-2.2-1.7-4-3.9-4.1-.3 0-.5 0-.8.1h-.6z"/></svg><svg viewBox="-1 -1 91.76 91.76" width="91.76" height="91.76" id="rain2" x="161" xmlns="http://www.w3.org/2000/svg"><g fill="#6a453b"><path d="M58.255 23.88H31.503c-4.27 0-7.744 3.474-7.744 7.744v26.752c0 4.27 3.474 7.745 7.744 7.745h26.752c4.27 0 7.745-3.474 7.745-7.745V31.624c0-4.27-3.474-7.744-7.745-7.744zM44.879 58.906c-7.667 0-13.905-6.238-13.905-13.906 0-7.667 6.238-13.905 13.905-13.905 7.668 0 13.906 6.238 13.906 13.905 0 7.667-6.239 13.906-13.906 13.906zM59.232 33.97a3.294 3.294 0 0 1-3.291-3.29 3.294 3.294 0 0 1 3.291-3.29 3.294 3.294 0 0 1 3.29 3.29 3.294 3.294 0 0 1-3.29 3.29z"/><path d="M44.879 36.971c-4.426 0-8.03 3.602-8.03 8.028 0 4.428 3.604 8.031 8.03 8.031 4.428 0 8.029-3.603 8.029-8.031 0-4.425-3.602-8.028-8.029-8.028z"/><path d="M44.879 0C20.094 0 0 20.094 0 44.879c0 24.785 20.094 44.879 44.879 44.879 24.785 0 44.879-20.094 44.879-44.879C89.758 20.094 69.664 0 44.879 0zm26.996 58.376c0 7.511-6.109 13.62-13.62 13.62H31.503c-7.51 0-13.62-6.109-13.62-13.62V31.624c0-7.51 6.11-13.62 13.62-13.62h26.752c7.511 0 13.62 6.11 13.62 13.62v26.752z"/></g></svg><svg id="renault" viewBox="-1 -1 161 92.5" width="161" height="92.5" xmlns="http://www.w3.org/2000/svg"><style>.jst0{fill:#fff}.jst1{font-family:&apos;Arial-BoldItalicMT&apos;}.jst2{font-size:30.5939px}.jst3{font-size:40.7919px}</style><text transform="matrix(1.1693 0 0 1 13.898 26.24)" class="jst0 jst1 jst2">Motor</text><text transform="matrix(1.1693 0 0 1 -.001 75.19)" class="jst0 jst1 jst3">King</text></svg><svg id="star" x="124" y="154.03" viewBox="-1 -1 66 66" width="66" height="66" xmlns="http://www.w3.org/2000/svg"><style>.kst0{fill:url(#kSVGID_1_)}</style><radialGradient id="kSVGID_1_" cx="32" cy="32.286" r="27.913" gradientUnits="userSpaceOnUse"><stop offset="0" stop-color="#fff"/><stop offset=".702" stop-color="#d4953d"/></radialGradient><path class="kst0" d="M30 6l-5.5 16.6c-.3.9-1.1 1.4-2 1.4H6c-2 0-2.9 2.5-1.3 3.8l14.2 11.3c.7.6 1 1.5.7 2.3l-5.3 15.8c-.7 2 1.7 3.6 3.3 2.3L30.7 49c.8-.6 1.9-.6 2.6 0l13.1 10.5c1.6 1.3 4-.3 3.3-2.3l-5.3-15.8c-.3-.8 0-1.8.7-2.3l14.2-11.3c1.6-1.3.7-3.8-1.3-3.8H41.5c-.9 0-1.7-.6-2-1.4L34 6c-.6-1.9-3.4-1.9-4 0z"/></svg><svg id="twitter" x="190" y="154.03" viewBox="-1 -1 53.8 44.1" width="53.8" height="44.1" xmlns="http://www.w3.org/2000/svg"><style>.lst0{fill:#fff}</style><path class="lst0" d="M46.2 7.8c-1.2 1.7-2.6 3.1-4 4.3v1c0 2.1-.2 4.5-1 6.9-.7 2.1-1.7 4.3-2.9 6.4-1.2 1.9-2.9 3.8-4.8 5.5-1.9 1.7-4 2.9-6.7 3.8-2.6 1-5.7 1.4-8.3 1.4-4.5 0-9-1.2-12.8-3.8h1.9c3.6 0 7.6-1.2 10.5-3.6-3.6 0-6.9-2.4-7.8-5.9.5 0 1 .2 1.4.2.7 0 1.4 0 2.1-.2-1.9-.5-3.6-1.4-4.8-2.9s-2-3.6-2-5.5c1.2.7 2.4 1 3.8 1-1.2-.7-2.1-1.7-2.6-2.9-.7-1.2-1-2.6-1-3.8 0-1.4.5-2.9 1.2-4 2.1 2.6 4.5 4.5 7.6 6.2 2.9 1.4 6.4 2.4 9.7 2.4-.2-.7-.2-1.2-.2-1.9 0-2.1.7-4.3 2.4-5.9 3.1-3.1 8.6-3.1 11.9 0l.2.1c1.9-.2 3.6-1 5.5-1.9-.5 1.9-1.9 3.6-3.6 4.5 1.2-.4 2.6-.9 4.3-1.4z"/></svg><svg id="wifi" x="252.76" y="132" viewBox="-1 -1 62 66" width="62" height="66" xmlns="http://www.w3.org/2000/svg"><style>.mst0{fill:url(#mSVGID_1_)}</style><radialGradient id="mSVGID_1_" cx="31.208" cy="54.935" r="56.134" fx="31.419" fy="104.943" gradientUnits="userSpaceOnUse"><stop offset=".064" stop-color="#eed6b4"/><stop offset=".086" stop-color="#e7c494"/><stop offset=".11" stop-color="#e1b578"/><stop offset=".383" stop-color="#dca962"/><stop offset=".405" stop-color="#dba55b"/><stop offset=".436" stop-color="#d69c49"/><stop offset=".449" stop-color="#d4963f"/><stop offset=".472" stop-color="#ddac66"/><stop offset=".496" stop-color="#e4bf89"/><stop offset=".522" stop-color="#ebcea6"/><stop offset=".549" stop-color="#f0dbbc"/><stop offset=".579" stop-color="#f3e3cc"/><stop offset=".613" stop-color="#f5e8d5"/><stop offset=".66" stop-color="#f6ead8"/><stop offset=".763" stop-color="#d69a46"/><stop offset=".767" stop-color="#ddaa64"/><stop offset=".772" stop-color="#e5be88"/><stop offset=".779" stop-color="#ecd0a8"/><stop offset=".786" stop-color="#f2dfc4"/><stop offset=".793" stop-color="#f7ebda"/><stop offset=".803" stop-color="#faf4eb"/><stop offset=".814" stop-color="#fdfaf6"/><stop offset=".83" stop-color="#fffefd"/><stop offset=".874" stop-color="#fff"/><stop offset="1" stop-color="#d4953d"/></radialGradient><path class="mst0" d="M29.9 0C20.7 0 11.7 2.3 3.7 6.6c-2 1.1-2.7 3.6-1.5 5.6 1.1 1.7 3.3 2.3 5 1.3 7-3.7 14.7-5.6 22.7-5.5 8-.1 15.9 1.8 22.9 5.5 1.7.9 3.9.3 5-1.3 1.2-1.9.6-4.5-1.5-5.6C48.2 2.2 39.1 0 29.9 0zm0 24c-4.6 0-9.1 1-13.3 2.9-2.1 1-2.8 3.6-1.6 5.5l.2.3c1 1.6 3.1 2.2 4.8 1.4 3-1.4 6.4-2.1 9.8-2.1 3.5 0 6.9.7 10 2.1 1.8.8 3.9.2 4.9-1.4l.1-.2c1.2-1.9.5-4.5-1.6-5.5-4.2-2-8.7-3-13.3-3zm0 24c-4.9 0-8.8 4.5-7.8 9.6.6 3.1 3.1 5.6 6.2 6.2 5.1 1 9.6-2.9 9.6-7.8 0-4.4-3.6-8-8-8z"/></svg><svg id="youtube" x="44" y="220.03" viewBox="-1 -1 36.8 44" width="36.8" height="44" xmlns="http://www.w3.org/2000/svg"><style>.nst0{fill:#fff}</style><path class="nst0" d="M21.1 27.6v3.9c0 .8-.2 1.3-.6 1.3-.3 0-.6-.2-.8-.3v-5.6c.2-.3.5-.3.8-.5s.6.1.6 1.2zm6.3 0v.8h-1.6v-.8c0-.8.3-1.3.8-1.3.5-.1.8.5.8 1.3zm-18-4.1h2v-1.6H5.7v1.9h2v10.5h1.9V23.5h-.2zM14.9 34h1.6v-9.1h-1.6v6.9c-.2.3-.6.6-.9.8-.2 0-.3-.2-.3-.3V25h-1.6v7.2c0 .5 0 .9.2 1.3.2.5.6.8 1.1.6.8-.2 1.4-.5 1.9-1.1-.4-.1-.4 1-.4 1zm7.8-2.8v-3.6c0-.6 0-1.3-.2-1.9-.2-.6-.6-.9-1.3-.9-.6 0-1.3.5-1.6.9v-3.9H18V34h1.6v-.8c.3.6.9.9 1.6.9.6 0 1.1-.5 1.3-.9.2-.8.2-1.4.2-2zM29 31v-.2h-1.6v1.1c0 .3-.3.6-.6.6-.5 0-.8-.5-.8-1.3v-1.6h3.3v-2c0-.8-.2-1.4-.5-2.2-.8-1.1-2.5-1.3-3.6-.3l-.3.3c-.3.6-.6 1.3-.5 2.2V31c0 .8.2 1.4.5 2.2.5.6 1.1.9 2 .9 1.1 0 2.2-.8 2.3-2-.4-.3-.2-.8-.2-1.1zM17.9 14.3v-3.9c0-.8-.3-1.3-.8-1.3s-.8.5-.8 1.3v3.9c0 .8.3 1.3.8 1.3.4-.1.8-.6.8-1.3zM31 28c0 2.2-.2 4.2-.5 6.4-.2.6-.5 1.3-1.1 1.9-.5.5-1.1.8-1.9.8-3.4.3-6.7.5-10.2.3-3.4 0-6.9 0-10.2-.3-.6 0-1.3-.3-1.9-.8-.6-.5-.9-1.3-1.1-1.9-.3-2.2-.5-4.2-.5-6.4s.2-4.2.5-6.4c.2-.6.5-1.3 1.1-1.9.5-.5 1.1-.8 2-.8 2.3-.2 5.6-.3 10.2-.3s8 .2 10.2.3c1.4.2 2.7 1.3 3 2.7.4 2.2.6 4.2.4 6.4zM12.5 4.6h1.9L12.1 12v4.9h-1.6V12c-.3-1.3-.6-2.7-1.1-4-.5-1.1-.8-2.3-1.1-3.4h2l1.3 4.7.9-4.7zm6.9 6.1V14c0 .8-.2 1.4-.5 2.2-.5.6-1.1.9-2 .9-.8 0-1.4-.3-2-.9-.3-.6-.5-1.4-.5-2.2v-3.3c0-.8.2-1.4.5-2.2.5-.6 1.1-.9 2-.9.8 0 1.4.3 2 .9.4.6.5 1.4.5 2.2zm6.1-3v9.2H24V16c-.5.6-1.1.9-2 1.1-.5 0-.8-.3-.9-.6-.2-.5-.2-.9-.2-1.3V8h1.6v7.3c0 .2.2.3.3.3.5-.2.8-.3.9-.8v-7l1.8-.1z"/></svg></svg>