<?xml version="1.0" encoding="utf-8"?>
<!-- Generator: Adobe Illustrator 23.0.1, SVG Export Plug-In . SVG Version: 6.00 Build 0)  -->
<svg version="1.1" id="Layer_1" xmlns="http://www.w3.org/2000/svg" xmlns:xlink="http://www.w3.org/1999/xlink" x="0px" y="0px"
	 viewBox="0 0 42 42" style="enable-background:new 0 0 42 42;" xml:space="preserve">
<style type="text/css">
	.st0{fill:#FFFFFF;}
</style>
<title>instagram</title>
<path class="st0" d="M33.7,32.3V18.4h-2.8c0.2,0.9,0.5,1.9,0.5,2.8c0,1.6-0.5,3.5-1.4,4.9c-0.9,1.4-2.1,2.8-3.8,3.5
	c-1.6,0.9-3.3,1.4-5.2,1.4c-2.6,0-5.4-0.9-7.3-2.8c-1.9-1.9-3.1-4.5-3.1-7c0-0.9,0-1.9,0.5-2.8H8.1v13.9c0,0.7,0.5,1.2,1.2,1.4l0,0
	h23c0.2,0,0.7-0.2,0.9-0.5C33.7,33,33.7,32.7,33.7,32.3z M27.6,21c0-1.6-0.7-3.3-1.9-4.5c-1.2-1.2-3.1-1.9-4.7-1.9s-3.3,0.7-4.7,1.9
	c-1.2,1.2-1.9,2.8-1.9,4.5c0,1.6,0.7,3.3,1.9,4.5c1.2,1.2,2.8,1.9,4.7,1.9c1.6,0,3.5-0.7,4.7-1.9C26.9,24.3,27.6,22.6,27.6,21z
	 M33.7,13.3V9.7c0-0.5-0.2-0.7-0.5-0.9c-0.2-0.2-0.7-0.5-0.9-0.5h-3.8c-0.5,0-0.7,0.2-0.9,0.5c-0.2,0.2-0.5,0.7-0.5,0.9v3.5
	c0,0.7,0.7,1.4,1.4,1.4l0,0h3.8C33,14.7,33.7,14,33.7,13.3L33.7,13.3L33.7,13.3L33.7,13.3z M37.4,8.8v24.4c0,2.3-1.9,4.2-4.2,4.2
	H8.8c-1.2,0-2.1-0.5-3.1-1.2c-0.7-0.7-1.2-1.9-1.2-3.1V8.8c0-1.2,0.5-2.1,1.2-3.1C6.4,5,7.6,4.6,8.8,4.6h24.4c1.2,0,2.1,0.5,3.1,1.2
	C37,6.7,37.4,7.6,37.4,8.8z"/>
</svg>
