<?xml version="1.0" encoding="utf-8"?>
<!-- Generator: Adobe Illustrator 23.0.1, SVG Export Plug-In . SVG Version: 6.00 Build 0)  -->
<svg version="1.1" id="Layer_1" xmlns="http://www.w3.org/2000/svg" xmlns:xlink="http://www.w3.org/1999/xlink" x="0px" y="0px"
	 viewBox="0 0 64 64" style="enable-background:new 0 0 64 64;" xml:space="preserve">
<style type="text/css">
	.st0{fill:url(#SVGID_1_);}
</style>
<title>star</title>
<radialGradient id="SVGID_1_" cx="32" cy="32.2859" r="27.9128" gradientUnits="userSpaceOnUse">
	<stop  offset="0" style="stop-color:#FFFFFF"/>
	<stop  offset="0.7023" style="stop-color:#D4953D"/>
</radialGradient>
<path class="st0" d="M30,6l-5.5,16.6c-0.3,0.9-1.1,1.4-2,1.4H6c-2,0-2.9,2.5-1.3,3.8l14.2,11.3c0.7,0.6,1,1.5,0.7,2.3l-5.3,15.8
	c-0.7,2,1.7,3.6,3.3,2.3l13.1-10.5c0.8-0.6,1.9-0.6,2.6,0l13.1,10.5c1.6,1.3,4-0.3,3.3-2.3l-5.3-15.8c-0.3-0.8,0-1.8,0.7-2.3
	l14.2-11.3C60.9,26.5,60,24,58,24H41.5c-0.9,0-1.7-0.6-2-1.4L34,6C33.4,4.1,30.6,4.1,30,6z"/>
</svg>
