<?xml version="1.0" encoding="utf-8"?>
<!-- Generator: Adobe Illustrator 23.0.1, SVG Export Plug-In . SVG Version: 6.00 Build 0)  -->
<svg version="1.1" id="Layer_1" xmlns="http://www.w3.org/2000/svg" xmlns:xlink="http://www.w3.org/1999/xlink" x="0px" y="0px"
	 viewBox="0 0 51.8 42.1" style="enable-background:new 0 0 51.8 42.1;" xml:space="preserve">
<style type="text/css">
	.st0{fill:#FFFFFF;}
</style>
<title>twitter</title>
<path class="st0" d="M46.2,7.8c-1.2,1.7-2.6,3.1-4,4.3v1c0,2.1-0.2,4.5-1,6.9c-0.7,2.1-1.7,4.3-2.9,6.4c-1.2,1.9-2.9,3.8-4.8,5.5
	c-1.9,1.7-4,2.9-6.7,3.8c-2.6,1-5.7,1.4-8.3,1.4c-4.5,0-9-1.2-12.8-3.8c0.7,0,1.4,0,1.9,0c3.6,0,7.6-1.2,10.5-3.6
	c-3.6,0-6.9-2.4-7.8-5.9c0.5,0,1,0.2,1.4,0.2c0.7,0,1.4,0,2.1-0.2c-1.9-0.5-3.6-1.4-4.8-2.9S7,17.3,7,15.4l0,0c1.2,0.7,2.4,1,3.8,1
	c-1.2-0.7-2.1-1.7-2.6-2.9c-0.7-1.2-1-2.6-1-3.8c0-1.4,0.5-2.9,1.2-4c2.1,2.6,4.5,4.5,7.6,6.2c2.9,1.4,6.4,2.4,9.7,2.4
	c-0.2-0.7-0.2-1.2-0.2-1.9c0-2.1,0.7-4.3,2.4-5.9c3.1-3.1,8.6-3.1,11.9,0L40,6.6c1.9-0.2,3.6-1,5.5-1.9c-0.5,1.9-1.9,3.6-3.6,4.5
	C43.1,8.8,44.5,8.3,46.2,7.8z"/>
</svg>
