<?xml version="1.0" encoding="utf-8"?>
<!-- Generator: Adobe Illustrator 23.0.1, SVG Export Plug-In . SVG Version: 6.00 Build 0)  -->
<svg version="1.1" id="Layer_1" xmlns="http://www.w3.org/2000/svg" xmlns:xlink="http://www.w3.org/1999/xlink" x="0px" y="0px"
	 viewBox="0 0 60 64" style="enable-background:new 0 0 60 64;" xml:space="preserve">
<style type="text/css">
	.st0{fill:url(#SVGID_1_);}
</style>
<title>wifi</title>
<radialGradient id="SVGID_1_" cx="29.9993" cy="31.9997" r="57.6589" fx="4.2751" fy="32.1353" gradientUnits="userSpaceOnUse">
	<stop  offset="2.703062e-02" style="stop-color:#FFFFFF"/>
	<stop  offset="4.420806e-02" style="stop-color:#F6EAD8"/>
	<stop  offset="6.383170e-02" style="stop-color:#EED6B4"/>
	<stop  offset="8.591752e-02" style="stop-color:#E7C494"/>
	<stop  offset="0.1103" style="stop-color:#E1B578"/>
	<stop  offset="0.1379" style="stop-color:#DCA962"/>
	<stop  offset="0.1701" style="stop-color:#D9A051"/>
	<stop  offset="0.2099" style="stop-color:#D69A46"/>
	<stop  offset="0.2657" style="stop-color:#D4963F"/>
	<stop  offset="0.4207" style="stop-color:#D4953D"/>
</radialGradient>
<path class="st0" d="M29.9,0C20.7,0,11.7,2.3,3.7,6.6c-2,1.1-2.7,3.6-1.5,5.6l0,0c1.1,1.7,3.3,2.3,5,1.3c7-3.7,14.7-5.6,22.7-5.5
	c8-0.1,15.9,1.8,22.9,5.5c1.7,0.9,3.9,0.3,5-1.3l0,0c1.2-1.9,0.6-4.5-1.5-5.6C48.2,2.2,39.1,0,29.9,0z M29.9,24
	c-4.6,0-9.1,1-13.3,2.9c-2.1,1-2.8,3.6-1.6,5.5l0.2,0.3c1,1.6,3.1,2.2,4.8,1.4c3-1.4,6.4-2.1,9.8-2.1c3.5,0,6.9,0.7,10,2.1
	c1.8,0.8,3.9,0.2,4.9-1.4l0.1-0.2c1.2-1.9,0.5-4.5-1.6-5.5C39,25,34.5,24,29.9,24L29.9,24L29.9,24z M29.9,48c-4.9,0-8.8,4.5-7.8,9.6
	c0.6,3.1,3.1,5.6,6.2,6.2c5.1,1,9.6-2.9,9.6-7.8l0,0C37.9,51.6,34.3,48,29.9,48z"/>
</svg>
