<?xml version="1.0" encoding="utf-8"?>
<!-- Generator: Adobe Illustrator 23.0.1, SVG Export Plug-In . SVG Version: 6.00 Build 0)  -->
<svg version="1.1" id="Layer_1" xmlns="http://www.w3.org/2000/svg" xmlns:xlink="http://www.w3.org/1999/xlink" x="0px" y="0px"
	 viewBox="0 0 34.8 42" style="enable-background:new 0 0 34.8 42;" xml:space="preserve">
<style type="text/css">
	.st0{fill:#FFFFFF;}
</style>
<title>youtube</title>
<path class="st0" d="M21.1,27.6v3.9c0,0.8-0.2,1.3-0.6,1.3c-0.3,0-0.6-0.2-0.8-0.3v-5.6c0.2-0.3,0.5-0.3,0.8-0.5
	S21.1,26.5,21.1,27.6z M27.4,27.6v0.8h-1.6v-0.8c0-0.8,0.3-1.3,0.8-1.3C27.1,26.2,27.4,26.8,27.4,27.6L27.4,27.6L27.4,27.6z
	 M9.4,23.5h2v-1.6H5.7v1.9h2v10.5h1.9V23.5H9.4z M14.9,34h1.6v-9.1h-1.6v6.9c-0.2,0.3-0.6,0.6-0.9,0.8c-0.2,0-0.3-0.2-0.3-0.3l0,0
	l0,0c0-0.2,0-0.5,0-0.6v-6.7h-1.6v7.2c0,0.5,0,0.9,0.2,1.3c0.2,0.5,0.6,0.8,1.1,0.6c0.8-0.2,1.4-0.5,1.9-1.1
	C14.9,32.9,14.9,34,14.9,34z M22.7,31.2v-3.6c0-0.6,0-1.3-0.2-1.9c-0.2-0.6-0.6-0.9-1.3-0.9c-0.6,0-1.3,0.5-1.6,0.9v-3.9h-1.6V34
	h1.6v-0.8c0.3,0.6,0.9,0.9,1.6,0.9c0.6,0,1.1-0.5,1.3-0.9C22.7,32.4,22.7,31.8,22.7,31.2L22.7,31.2z M29,31v-0.2h-1.6
	c0,0.3,0,0.8,0,1.1c0,0.3-0.3,0.6-0.6,0.6c-0.5,0-0.8-0.5-0.8-1.3v-1.6h3.3v-2c0-0.8-0.2-1.4-0.5-2.2c-0.8-1.1-2.5-1.3-3.6-0.3
	c-0.2,0.2-0.3,0.3-0.3,0.3c-0.3,0.6-0.6,1.3-0.5,2.2V31c0,0.8,0.2,1.4,0.5,2.2c0.5,0.6,1.1,0.9,2,0.9c1.1,0,2.2-0.8,2.3-2
	C28.8,31.8,29,31.3,29,31L29,31L29,31z M17.9,14.3v-3.9c0-0.8-0.3-1.3-0.8-1.3c-0.5,0-0.8,0.5-0.8,1.3v3.9c0,0.8,0.3,1.3,0.8,1.3
	C17.5,15.5,17.9,15,17.9,14.3z M31,28c0,2.2-0.2,4.2-0.5,6.4c-0.2,0.6-0.5,1.3-1.1,1.9c-0.5,0.5-1.1,0.8-1.9,0.8
	c-3.4,0.3-6.7,0.5-10.2,0.3c-3.4,0-6.9,0-10.2-0.3c-0.6,0-1.3-0.3-1.9-0.8c-0.6-0.5-0.9-1.3-1.1-1.9c-0.3-2.2-0.5-4.2-0.5-6.4
	s0.2-4.2,0.5-6.4c0.2-0.6,0.5-1.3,1.1-1.9c0.5-0.5,1.1-0.8,2-0.8c2.3-0.2,5.6-0.3,10.2-0.3s8,0.2,10.2,0.3c1.4,0.2,2.7,1.3,3,2.7
	C31,23.8,31.2,25.8,31,28z M12.5,4.6h1.9l-2.3,7.4v4.9h-1.6v-4.9C10.2,10.7,9.9,9.3,9.4,8C8.9,6.9,8.6,5.7,8.3,4.6h2l1.3,4.7
	L12.5,4.6z M19.4,10.7v3.3c0,0.8-0.2,1.4-0.5,2.2c-0.5,0.6-1.1,0.9-2,0.9c-0.8,0-1.4-0.3-2-0.9c-0.3-0.6-0.5-1.4-0.5-2.2v-3.3
	c0-0.8,0.2-1.4,0.5-2.2c0.5-0.6,1.1-0.9,2-0.9c0.8,0,1.4,0.3,2,0.9C19.3,9.1,19.4,9.9,19.4,10.7z M25.5,7.7v9.2H24V16
	c-0.5,0.6-1.1,0.9-2,1.1c-0.5,0-0.8-0.3-0.9-0.6c-0.2-0.5-0.2-0.9-0.2-1.3V8h1.6v6.7c0,0.2,0,0.5,0,0.6c0,0.2,0.2,0.3,0.3,0.3l0,0
	l0,0c0.5-0.2,0.8-0.3,0.9-0.8v-7L25.5,7.7L25.5,7.7z"/>
</svg>
